<svg xmlns="http://www.w3.org/2000/svg" xmlns:xlink="http://www.w3.org/1999/xlink" width="1400" zoomAndPan="magnify" viewBox="0 0 1050 1199.999942" height="1600" preserveAspectRatio="xMidYMid meet" version="1.0"><defs><clipPath id="3984b6bc46"><path d="M 95.339844 387 L 171 387 L 171 447 L 95.339844 447 Z M 95.339844 387 " clip-rule="nonzero"/></clipPath><clipPath id="4354eae703"><path d="M 95.339844 386 L 171 386 L 171 448 L 95.339844 448 Z M 95.339844 386 " clip-rule="nonzero"/></clipPath><clipPath id="cd68b13cdb"><path d="M 397 98.011719 L 444 98.011719 L 444 198 L 397 198 Z M 397 98.011719 " clip-rule="nonzero"/></clipPath><clipPath id="bedcc646ce"><path d="M 396 98.011719 L 445 98.011719 L 445 198 L 396 198 Z M 396 98.011719 " clip-rule="nonzero"/></clipPath><clipPath id="d686e894aa"><path d="M 812 450 L 933.839844 450 L 933.839844 642 L 812 642 Z M 812 450 " clip-rule="nonzero"/></clipPath><clipPath id="a4cf1dd6d5"><path d="M 811 450 L 933.839844 450 L 933.839844 642 L 811 642 Z M 811 450 " clip-rule="nonzero"/></clipPath><clipPath id="bcdc654e5b"><path d="M 935 900 L 963 900 L 963 928 L 935 928 Z M 935 900 " clip-rule="nonzero"/></clipPath><clipPath id="f4ad6f6ab3"><path d="M 933.664062 902.460938 L 961.128906 898.492188 L 965.09375 925.957031 L 937.628906 929.925781 Z M 933.664062 902.460938 " clip-rule="nonzero"/></clipPath><clipPath id="223bd162aa"><path d="M 933.664062 902.460938 L 960.90625 898.527344 L 964.84375 925.769531 L 937.597656 929.707031 Z M 933.664062 902.460938 " clip-rule="nonzero"/></clipPath><clipPath id="753c5a3af2"><path d="M 947.269531 900.496094 C 939.753906 901.582031 934.542969 908.5625 935.632812 916.082031 C 936.71875 923.605469 943.691406 928.824219 951.203125 927.738281 C 958.71875 926.65625 963.925781 919.675781 962.839844 912.152344 C 961.753906 904.628906 954.78125 899.410156 947.269531 900.496094 Z M 947.269531 900.496094 " clip-rule="nonzero"/></clipPath><clipPath id="530dba9a11"><path d="M 97 416 L 151 416 L 151 445 L 97 445 Z M 97 416 " clip-rule="nonzero"/></clipPath><clipPath id="a08280626a"><path d="M 95.339844 420.628906 L 148.785156 412.910156 L 152.753906 440.375 L 99.308594 448.09375 Z M 95.339844 420.628906 " clip-rule="nonzero"/></clipPath><clipPath id="07e8b01181"><path d="M 95.347656 420.628906 L 149.074219 412.867188 L 153.019531 440.15625 L 99.289062 447.921875 Z M 95.347656 420.628906 " clip-rule="nonzero"/></clipPath><clipPath id="1d6f511680"><path d="M 122 416.777344 C 107.28125 418.90625 96.230469 426.738281 97.316406 434.273438 C 98.40625 441.8125 111.222656 446.195312 125.941406 444.070312 C 140.660156 441.941406 151.710938 434.109375 150.625 426.574219 C 149.535156 419.039062 136.71875 414.652344 122 416.777344 Z M 122 416.777344 " clip-rule="nonzero"/></clipPath><clipPath id="4670cb9262"><path d="M 815 760 L 844 760 L 844 789 L 815 789 Z M 815 760 " clip-rule="nonzero"/></clipPath><clipPath id="421d70a7e7"><path d="M 813.929688 762.960938 L 841.394531 758.992188 L 845.363281 786.457031 L 817.898438 790.425781 Z M 813.929688 762.960938 " clip-rule="nonzero"/></clipPath><clipPath id="5f233b3a74"><path d="M 813.929688 762.960938 L 841.171875 759.027344 L 845.109375 786.269531 L 817.867188 790.207031 Z M 813.929688 762.960938 " clip-rule="nonzero"/></clipPath><clipPath id="220e52f7f7"><path d="M 827.535156 760.996094 C 820.019531 762.082031 814.8125 769.058594 815.898438 776.582031 C 816.984375 784.105469 823.957031 789.324219 831.46875 788.238281 C 838.984375 787.15625 844.195312 780.175781 843.105469 772.652344 C 842.019531 765.128906 835.046875 759.910156 827.535156 760.996094 Z M 827.535156 760.996094 " clip-rule="nonzero"/></clipPath><clipPath id="3369af5197"><path d="M 36 383 L 65 383 L 65 412 L 36 412 Z M 36 383 " clip-rule="nonzero"/></clipPath><clipPath id="153adacaf7"><path d="M 34.703125 385.671875 L 62.167969 381.703125 L 66.132812 409.167969 L 38.667969 413.136719 Z M 34.703125 385.671875 " clip-rule="nonzero"/></clipPath><clipPath id="93dfb39872"><path d="M 34.703125 385.671875 L 61.945312 381.738281 L 65.882812 408.980469 L 38.636719 412.917969 Z M 34.703125 385.671875 " clip-rule="nonzero"/></clipPath><clipPath id="e77fa45c04"><path d="M 48.304688 383.707031 C 40.792969 384.792969 35.582031 391.769531 36.667969 399.292969 C 37.757812 406.816406 44.726562 412.035156 52.242188 410.949219 C 59.753906 409.863281 64.964844 402.886719 63.878906 395.363281 C 62.792969 387.839844 55.820312 382.621094 48.304688 383.707031 Z M 48.304688 383.707031 " clip-rule="nonzero"/></clipPath><clipPath id="d76c218efa"><path d="M 381 601 L 410 601 L 410 630 L 381 630 Z M 381 601 " clip-rule="nonzero"/></clipPath><clipPath id="1f85fc52ac"><path d="M 379.722656 603.933594 L 407.1875 599.964844 L 411.15625 627.429688 L 383.691406 631.398438 Z M 379.722656 603.933594 " clip-rule="nonzero"/></clipPath><clipPath id="04846d1a05"><path d="M 379.722656 603.933594 L 406.96875 599.996094 L 410.902344 627.238281 L 383.660156 631.175781 Z M 379.722656 603.933594 " clip-rule="nonzero"/></clipPath><clipPath id="b281463602"><path d="M 393.328125 601.964844 C 385.8125 603.050781 380.605469 610.03125 381.691406 617.554688 C 382.777344 625.078125 389.75 630.296875 397.265625 629.210938 C 404.777344 628.125 409.988281 621.144531 408.902344 613.621094 C 407.8125 606.101562 400.839844 600.882812 393.328125 601.964844 Z M 393.328125 601.964844 " clip-rule="nonzero"/></clipPath><clipPath id="567b0b1dc6"><path d="M 985 676 L 1014 676 L 1014 704 L 985 704 Z M 985 676 " clip-rule="nonzero"/></clipPath><clipPath id="86211871fe"><path d="M 984.140625 678.503906 L 1011.605469 674.535156 L 1015.574219 702 L 988.109375 705.96875 Z M 984.140625 678.503906 " clip-rule="nonzero"/></clipPath><clipPath id="07d36a26a8"><path d="M 984.140625 678.503906 L 1011.386719 674.566406 L 1015.320312 701.8125 L 988.078125 705.746094 Z M 984.140625 678.503906 " clip-rule="nonzero"/></clipPath><clipPath id="57a2104cea"><path d="M 997.746094 676.539062 C 990.234375 677.625 985.023438 684.601562 986.109375 692.125 C 987.199219 699.648438 994.167969 704.867188 1001.683594 703.78125 C 1009.195312 702.695312 1014.40625 695.71875 1013.320312 688.195312 C 1012.234375 680.671875 1005.261719 675.453125 997.746094 676.539062 Z M 997.746094 676.539062 " clip-rule="nonzero"/></clipPath></defs><path stroke-linecap="butt" transform="matrix(1.003486, 0, 0, 1.003486, 12.752902, 98.753402)" fill-opacity="1" fill="#ffffff" fill-rule="evenodd" stroke-linejoin="round" d="M 495.301565 598.601085 L 459.298178 598.398666 L 455.000661 600.099767 L 451.501142 599.80003 L 446.401733 601.699658 L 445.300105 604.401177 L 451.298723 613.101314 L 453.700506 622.400924 L 457.301234 635.799524 L 453.498087 641.29988 L 452.898614 644.098716 L 455.79866 652.4018 L 458.901125 660.798308 L 462.501853 665.8004 L 463.101325 673.601329 L 461.699961 683.901357 L 457.698287 690.001185 L 450.601934 699.098375 L 447.701888 704.69994 L 443.599004 717.199332 L 442.801005 723.100633 L 438.499595 735.798552 L 436.599968 747.998207 L 437.600386 756.698344 L 443.501687 754.000718 L 450.699251 751.700145 L 458.500179 752.101091 L 465.600425 758.399445 L 467.500053 757.399026 L 516.298675 756.799554 L 524.500549 763.401537 L 553.598323 765.398482 L 576.00069 759.6996 L 568.398288 751.100672 L 560.601253 739.800225 L 562.201144 695.801276 L 587.499664 695.898593 L 586.499245 691.20013 L 588.500082 685.999511 L 586.499245 679.498737 L 588.001819 672.799437 L 586.798981 668.50192 L 581.298626 667.700028 L 573.700117 669.700865 L 568.398288 669.401128 L 565.400926 670.701283 L 566.300134 654.200217 L 562.39967 649.100808 L 561.601671 640.599198 L 563.501298 632.198797 L 561.099516 626.900861 L 560.998306 618.200723 L 546.198341 618.301933 L 547.299969 613.299841 L 541.098932 613.40105 L 540.398249 615.798941 L 532.79974 616.301096 L 529.701168 624.401761 L 527.801541 627.800069 L 521.098348 625.900442 L 517.100566 627.800069 L 508.999902 628.901698 L 504.398755 621.700242 L 501.701129 617.200305 L 498.201611 608.901114 Z M 447.900415 595.899566 L 448.30136 589.900948 L 450.298305 586.40143 L 454.798241 583.501384 L 450.200988 578.701711 L 446.49905 580.998392 L 441.50085 587.000902 L 444.801842 597.398248 Z M 447.900415 595.899566 " stroke="#000000" stroke-width="1" stroke-opacity="1" stroke-miterlimit="4"/><path stroke-linecap="butt" transform="matrix(1.003486, 0, 0, 1.003486, 12.752902, 98.753402)" fill-opacity="1" fill="#ffffff" fill-rule="evenodd" stroke-linejoin="round" d="M 669.000681 556.100818 L 668.401208 550.701672 L 661.900434 549.798571 L 658.10118 557.700709 L 650.701197 556.599081 L 653.69856 562.901328 L 653.79977 565.299218 L 658.10118 578.499292 L 658.10118 579.098764 L 659.300125 578.900238 L 663.800062 573.898145 L 668.700944 566.700582 L 671.698307 563.800536 L 671.60099 559.3006 Z M 669.000681 556.100818 " stroke="#000000" stroke-width="1" stroke-opacity="1" stroke-miterlimit="4"/><path stroke-linecap="butt" transform="matrix(1.003486, 0, 0, 1.003486, 12.752902, 98.753402)" fill-opacity="1" fill="#ffffff" fill-rule="evenodd" stroke-linejoin="round" d="M 339.999249 356.001554 L 330.69964 347.998206 L 326.398229 348.099416 L 322.299239 352.10109 L 319.698929 356.30129 L 313.700311 357.500235 L 311.201211 363.600063 L 307.098328 365.199954 L 305.498437 372.40141 L 309.200374 376.500401 L 313.501784 381.401283 L 313.898838 388.201793 L 316.40183 391.000629 L 315.899675 422.799923 L 318.90093 432.298059 L 328.998539 430.698168 L 329.601904 408.400904 L 329.298275 399.599557 L 331.598848 390.89942 L 335.300786 386.601902 L 341.198194 378.100292 L 339.901932 374.398354 L 342.299823 368.800682 L 339.500987 360.598808 Z M 339.999249 356.001554 " stroke="#000000" stroke-width="1" stroke-opacity="1" stroke-miterlimit="4"/><path stroke-linecap="butt" transform="matrix(1.003486, 0, 0, 1.003486, 12.752902, 98.753402)" fill-opacity="1" fill="#ffffff" fill-rule="evenodd" stroke-linejoin="round" d="M 300.698764 310.799767 L 292.901728 310.799767 L 289.900473 308.199458 L 283.201172 310.099085 L 271.900726 315.899176 L 269.600152 320.200587 L 260.199333 326.401624 L 258.498232 329.998459 L 253.398823 332.801188 L 247.598731 330.901561 L 244.200423 334.299869 L 242.398113 343.801898 L 232.70145 355.199662 L 233.001186 359.898125 L 229.598984 365.799427 L 230.400876 373.798882 L 235.901232 376.800137 L 237.999385 381.401283 L 243.398531 384.301329 L 247.699941 380.899128 L 253.398823 380.299655 L 261.701907 383.900383 L 260.098123 373.499145 L 260.401752 365.6009 L 281.500072 365.001427 L 286.899217 366.001846 L 290.799681 363.79859 L 296.401246 364.900218 L 307.098328 365.199954 L 311.201211 363.600063 L 313.700311 357.500235 L 319.698929 356.30129 L 322.299239 352.10109 L 322.598975 342.599061 L 308.600902 339.500488 L 308.199956 332.801188 L 301.298236 323.801314 L 299.698345 317.499067 Z M 300.698764 310.799767 " stroke="#000000" stroke-width="1" stroke-opacity="1" stroke-miterlimit="4"/><path stroke-linecap="butt" transform="matrix(1.003486, 0, 0, 1.003486, 12.752902, 98.753402)" fill-opacity="1" fill="#ffffff" fill-rule="evenodd" stroke-linejoin="round" d="M 600.598528 762.700855 L 598.399164 761.700437 L 591.501337 764.799009 L 587.900609 764.799009 L 579.998471 770.198155 L 575.599744 764.499273 L 556.899315 769.400155 L 547.899442 769.801101 L 545.999814 819.101879 L 534.201105 819.600142 L 532.79974 859.998363 L 535.999522 861.9992 L 542.500296 875.199274 L 541.001615 883.599675 L 543.500714 888.500558 L 551.998432 887.099193 L 558.19947 880.898156 L 563.999561 876.701848 L 567.199343 870.099865 L 573.201854 866.900083 L 578.098844 868.601183 L 583.599199 872.501647 L 593.198545 873.10112 L 600.999474 869.901338 L 602.400838 865.599928 L 604.798728 859.001837 L 611.299502 857.900209 L 615.199966 852.69959 L 619.598693 843.39998 L 630.801823 833.099952 L 648.100888 822.901134 L 640.798222 816.700096 L 631.599822 814.59805 L 628.50125 805.800595 L 628.699776 800.899713 L 623.600367 799.401031 L 610.59882 784.20012 L 607.099302 776.200665 L 604.798728 773.798882 Z M 600.598528 762.700855 " stroke="#000000" stroke-width="1" stroke-opacity="1" stroke-miterlimit="4"/><path stroke-linecap="butt" transform="matrix(1.003486, 0, 0, 1.003486, 12.752902, 98.753402)" fill-opacity="1" fill="#ffffff" fill-rule="evenodd" stroke-linejoin="round" d="M 587.001401 398.100876 L 586.000982 397.400194 L 581.800782 393.39852 L 580.901573 389.101002 L 582.8012 383.398228 L 582.69999 377.699346 L 575.498535 369.100418 L 573.999853 363.199117 L 566.300134 365.49969 L 560.301516 371.101255 L 551.698696 386.200956 L 540.398249 392.60052 L 528.59954 391.798629 L 525.201231 393.001466 L 526.400176 397.898456 L 520.101822 402.698129 L 514.99852 408.101168 L 499.700292 413.399104 L 496.699037 410.300531 L 494.600883 410.000795 L 492.401519 413.601523 L 482.401227 414.601941 L 476.301399 428.600015 L 473.401354 431.200324 L 472.599462 441.901298 L 473.798407 447.70139 L 472.899198 451.80038 L 478.69929 459.099153 L 479.699708 464.000036 L 484.300854 471.201492 L 489.898527 475.600219 L 490.501892 481.898573 L 491.798154 485.900247 L 498.100401 473.101119 L 505.399174 465.701137 L 513.601048 468.099027 L 521.499294 468.799709 L 522.499712 459.200363 L 527.198175 452.100117 L 533.698949 447.70139 L 543.800451 452.399853 L 551.601379 457.499262 L 560.601253 458.900627 L 569.698443 461.598253 L 573.299171 453.201745 L 574.899062 452.100117 L 580.500627 453.501481 L 594.000437 446.599762 L 598.90132 449.601017 L 602.801784 449.098861 L 604.600202 445.801762 L 609.100138 444.598925 L 618.298539 446.000289 L 626.200677 446.401235 L 630.198458 444.898661 L 628.201514 440.499934 L 618.999221 434.999579 L 615.799439 426.700387 L 610.59882 420.701769 L 602.299629 413.500313 L 602.198419 409.000376 L 595.401802 403.500021 Z M 587.001401 398.100876 " stroke="#000000" stroke-width="1" stroke-opacity="1" stroke-miterlimit="4"/><path stroke-linecap="butt" transform="matrix(1.003486, 0, 0, 1.003486, 12.752902, 98.753402)" fill-opacity="1" fill="#ffffff" fill-rule="evenodd" stroke-linejoin="round" d="M 230.400876 373.798882 L 225.398784 375.900928 L 222.498738 377.598136 L 220.700321 371.700728 L 217.200802 373.300619 L 215.098756 373.000882 L 212.798183 376.998664 L 203.401256 376.901347 L 200.100264 374.7993 L 198.500373 376.099455 L 196.001273 377.201083 L 195.000855 381.899546 L 197.799691 387.598428 L 200.800946 398.700348 L 196.1998 400.300239 L 195.098172 402.199867 L 196.001273 404.901386 L 195.199381 411.001213 L 193.299754 411.001213 L 192.700282 414.998995 L 193.899227 421.698295 L 191.2016 427.798123 L 194.798436 431.60127 L 198.601583 432.500479 L 203.798309 438.30057 L 204.101938 443.800925 L 203.00031 445.498133 L 201.999891 456.89979 L 204.300465 457.300736 L 216.39891 452.201326 L 224.900521 448.199653 L 239.40075 445.801762 L 247.201678 445.599343 L 255.699396 448.300862 L 261.300961 448.199653 L 261.799224 442.699297 L 256.598605 430.799378 L 259.798387 415.201414 L 264.901689 403.601231 L 261.701907 383.900383 L 253.398823 380.299655 L 247.699941 380.899128 L 243.398531 384.301329 L 237.999385 381.401283 L 235.901232 376.800137 Z M 230.400876 373.798882 " stroke="#000000" stroke-width="1" stroke-opacity="1" stroke-miterlimit="4"/><path stroke-linecap="butt" transform="matrix(1.003486, 0, 0, 1.003486, 12.752902, 98.753402)" fill-opacity="1" fill="#ffffff" fill-rule="evenodd" stroke-linejoin="round" d="M 477.500344 366.601318 L 477.90129 357.399026 L 476.900872 348.301835 L 471.999989 339.399279 L 468.601681 340.20117 L 468.200735 344.599898 L 473.101617 350.100253 L 471.801463 352.599353 L 471.299307 357.200499 L 461.100488 367.901473 L 458.001916 376.698927 L 456.398132 383.900383 L 453.801716 386.998956 L 451.399933 396.699511 L 445.000369 402.398393 L 443.100741 409.401322 L 440.399222 414.998995 L 439.301487 420.701769 L 430.998403 425.400233 L 424.100576 419.701351 L 419.49943 419.899877 L 412.301866 428.000542 L 408.701138 428.101752 L 402.998364 441.500352 L 399.899792 451.298225 L 399.798582 455.101372 L 402.901047 457.098316 L 405.400147 463.299354 L 411.001712 465.599927 L 415.801385 474.798327 L 413.999074 485.701721 L 433.898449 486.001457 L 439.69854 485.098355 L 447.098523 487.001875 L 454.401188 485.199565 L 455.89987 485.900247 L 471.299307 486.49972 L 481.198389 490.100448 L 490.898945 493.401439 L 491.798154 485.900247 L 490.501892 481.898573 L 489.898527 475.600219 L 484.300854 471.201492 L 479.699708 464.000036 L 478.69929 459.099153 L 472.899198 451.80038 L 473.798407 447.70139 L 472.599462 441.901298 L 473.401354 431.200324 L 476.301399 428.600015 L 482.401227 414.601941 L 484.199645 410.900004 L 480.299181 401.300658 L 478.500763 395.601776 L 473.198934 393.301203 L 466.001371 385.200538 L 468.500471 378.699764 L 474.098143 379.999919 L 477.500344 379.10071 L 484.300854 379.20192 Z M 477.500344 366.601318 " stroke="#000000" stroke-width="1" stroke-opacity="1" stroke-miterlimit="4"/><path stroke-linecap="butt" transform="matrix(1.003486, 0, 0, 1.003486, 12.752902, 98.753402)" fill-opacity="1" fill="#ffffff" fill-rule="evenodd" stroke-linejoin="round" d="M 618.298539 446.000289 L 609.100138 444.598925 L 604.600202 445.801762 L 602.801784 449.098861 L 598.90132 449.601017 L 594.000437 446.599762 L 580.500627 453.501481 L 574.899062 452.100117 L 573.299171 453.201745 L 569.698443 461.598253 L 560.601253 458.900627 L 551.601379 457.499262 L 543.800451 452.399853 L 533.698949 447.70139 L 527.198175 452.100117 L 522.499712 459.200363 L 521.499294 468.799709 L 520.798611 477.20011 L 517.201776 484.600092 L 514.799993 493.19902 L 513.301312 505.499885 L 513.998101 513.300814 L 512.001157 518.100487 L 511.701421 523.199896 L 510.300057 527.598623 L 502.199392 534.301816 L 496.60172 541.39817 L 491.299891 554.800663 L 491.599627 566.198427 L 488.501055 570.601046 L 481.299599 577.401556 L 474.098143 586.101694 L 469.598206 583.598701 L 468.800207 579.698237 L 462.198224 579.60092 L 458.001916 584.898856 L 454.798241 583.501384 L 450.298305 586.40143 L 448.30136 589.900948 L 447.900415 595.899566 L 444.801842 597.398248 L 446.401733 601.699658 L 451.501142 599.80003 L 455.000661 600.099767 L 459.298178 598.398666 L 495.301565 598.601085 L 498.201611 608.901114 L 501.701129 617.200305 L 504.398755 621.700242 L 508.999902 628.901698 L 517.100566 627.800069 L 521.098348 625.900442 L 527.801541 627.800069 L 529.701168 624.401761 L 532.79974 616.301096 L 540.398249 615.798941 L 541.098932 613.40105 L 547.299969 613.299841 L 546.198341 618.301933 L 560.998306 618.200723 L 561.099516 626.900861 L 563.501298 632.198797 L 561.601671 640.599198 L 562.39967 649.100808 L 566.300134 654.200217 L 565.400926 670.701283 L 568.398288 669.401128 L 573.700117 669.700865 L 581.298626 667.700028 L 586.798981 668.50192 L 590.999182 668.801656 L 591.598654 673.099173 L 597.301429 672.799437 L 605.001148 674.099592 L 608.901612 680.300629 L 618.598275 682.301466 L 626.099467 677.898846 L 628.699776 685.201512 L 637.898177 687.101139 L 642.199587 692.998548 L 646.99926 700.600949 L 656.29887 700.698266 L 655.699397 685.800984 L 652.301088 688.300084 L 643.900687 682.900939 L 640.700905 680.499156 L 642.600533 666.5984 L 645.099632 650.198544 L 642.499323 644.098716 L 646.100051 635.301262 L 649.401043 633.600161 L 665.800899 631.299588 L 667.899053 631.89906 L 668.498525 629.598487 L 665.100216 625.900442 L 663.601535 618.301933 L 656.29887 610.699531 L 652.199879 600.800449 L 654.500452 595.000357 L 651.30067 587.199429 L 653.69856 565.100691 L 653.79977 565.299218 L 653.69856 562.901328 L 650.701197 556.599081 L 651.900142 549.000571 L 653.601243 548.000153 L 654.099506 539.700962 L 657.599024 535.901707 L 657.700234 525.39926 L 660.60028 520.101324 L 661.199752 508.999404 L 663.800062 502.59984 L 668.401208 495.398384 L 673.099671 491.700339 L 677.000136 486.799456 L 672.099253 484.899829 L 672.698726 468.799709 L 661.799225 459.601309 L 658.899179 453.700008 L 652.098669 456.600054 L 646.399787 455.700845 L 643.200005 458.001418 L 637.69965 456.300317 L 630.198458 444.898661 L 626.200677 446.401235 Z M 618.298539 446.000289 " stroke="#000000" stroke-width="1" stroke-opacity="1" stroke-miterlimit="4"/><path stroke-linecap="butt" transform="matrix(1.003486, 0, 0, 1.003486, 12.752902, 98.753402)" fill-opacity="1" fill="#ffffff" fill-rule="evenodd" stroke-linejoin="round" d="M 521.499294 468.799709 L 513.601048 468.099027 L 505.399174 465.701137 L 498.100401 473.101119 L 491.798154 485.900247 L 490.898945 493.401439 L 481.198389 490.100448 L 471.299307 486.49972 L 455.89987 485.900247 L 455.000661 492.000075 L 458.398969 499.100321 L 467.500053 497.998693 L 470.598625 500.700212 L 465.300689 516.800332 L 471.10078 524.998314 L 472.400935 535.800497 L 470.801044 544.998898 L 467.099107 551.499671 L 456.300815 550.900199 L 449.800042 544.298215 L 448.799623 550.401936 L 440.500432 552.099144 L 436.300232 555.598662 L 440.901378 564.699745 L 431.601768 572.399464 L 441.50085 587.000902 L 446.49905 580.998392 L 450.200988 578.701711 L 454.798241 583.501384 L 458.001916 584.898856 L 462.198224 579.60092 L 468.800207 579.698237 L 469.598206 583.598701 L 474.098143 586.101694 L 481.299599 577.401556 L 488.501055 570.601046 L 491.599627 566.198427 L 491.299891 554.800663 L 496.60172 541.39817 L 502.199392 534.301816 L 510.300057 527.598623 L 511.701421 523.199896 L 512.001157 518.100487 L 513.998101 513.300814 L 513.301312 505.499885 L 514.799993 493.19902 L 517.201776 484.600092 L 520.798611 477.20011 Z M 521.499294 468.799709 " stroke="#000000" stroke-width="1" stroke-opacity="1" stroke-miterlimit="4"/><path stroke-linecap="butt" transform="matrix(1.003486, 0, 0, 1.003486, 12.752902, 98.753402)" fill-opacity="1" fill="#ffffff" fill-rule="evenodd" stroke-linejoin="round" d="M 820.301322 358.69918 L 814.999494 354.899926 L 821.800004 351.598934 L 821.901213 345.900052 L 818.899958 341.598642 L 815.29923 345.000843 L 810.098611 343.801898 L 806.10083 349.901726 L 802.200366 356.398607 L 803.298101 360.201754 L 803.60173 364.398062 L 810.398347 364.600482 L 813.298393 363.701273 L 816.101122 366.099163 Z M 820.301322 358.69918 " stroke="#000000" stroke-width="1" stroke-opacity="1" stroke-miterlimit="4"/><path stroke-linecap="butt" transform="matrix(1.003486, 0, 0, 1.003486, 12.752902, 98.753402)" fill-opacity="1" fill="#ffffff" fill-rule="evenodd" stroke-linejoin="round" d="M 392.398599 5.699384 L 384.601564 6.501276 L 379.801891 3.301494 L 367.598342 3.398811 L 356.998578 8.899166 L 351.198486 6.801012 L 332.299531 7.999957 L 312.898419 10.499057 L 301.901601 14.800467 L 294.700146 20.600559 L 282.298071 22.998449 L 271.200043 30.698168 L 275.400244 39.701934 L 276.100926 48.098442 L 280.00139 62.80109 L 283.099963 65.701136 L 280.900599 71.100281 L 265.699688 73.400855 L 260.300543 78.500264 L 253.601242 79.699209 L 253.00177 89.90192 L 239.198331 95.301066 L 234.601077 102.300102 L 225.001731 105.998147 L 213.199128 108.100194 L 194.000436 118.299012 L 193.80191 134.601552 L 193.80191 135.598077 L 193.498281 138.299596 L 237.59844 171.799991 L 277.599607 201.999393 L 318.001721 232.198796 L 320.901767 238.59836 L 328.399066 242.600034 L 333.899422 244.799397 L 334.101841 253.600744 L 347.399232 252.300589 L 364.301243 246.099552 L 398.798163 218.998722 L 439.301487 192.598574 L 433.898449 183.898437 L 424.299103 177.498872 L 418.798747 180.001865 L 414.50123 172.298254 L 413.901757 166.400845 L 406.700302 156.299343 L 411.301448 150.499252 L 410.001293 141.799115 L 411.398765 134.200606 L 410.398346 127.898359 L 412.200657 116.601804 L 411.398765 110.198348 L 407.299774 97.998692 L 401.600892 73.299645 L 394.298227 67.69808 L 394.0997 64.400981 L 384.399144 56.10179 L 383.09899 45.700552 L 390.101919 37.899623 L 392.499809 26.29944 L 390.199236 12.90084 Z M 392.398599 5.699384 " stroke="#000000" stroke-width="1" stroke-opacity="1" stroke-miterlimit="4"/><path stroke-linecap="butt" transform="matrix(1.003486, 0, 0, 1.003486, 12.752902, 98.753402)" fill-opacity="1" fill="#ffffff" fill-rule="evenodd" stroke-linejoin="round" d="M 628.800986 88.09961 L 616.901067 84.101829 L 605.398201 80.399891 L 589.800237 80.598418 L 586.098299 87.200401 L 588.301555 93.101702 L 585.899773 101.59942 L 590.099973 112.798657 L 593.000019 161.998225 L 595.199382 212.898894 L 737.099204 212.898894 L 734.899841 210.100058 L 720.201086 197.701876 L 719.301877 188.69811 L 721.50124 186.300219 L 709.901057 170.998099 L 705.498438 163.099853 L 700.601448 155.598661 L 690.099 133.998186 L 681.698599 120.101323 L 675.598771 105.601094 L 676.700399 104.300939 L 686.801901 124.099104 L 692.5981 130.300141 L 696.89951 134.698868 L 699.39861 132.300978 L 702.100129 125.099522 L 703.70002 114.698285 L 706.498856 109.100612 L 705.000175 105.601094 L 696.498564 85.4993 L 691.099418 88.901502 L 681.901018 88.09961 L 672.301672 84.899828 L 670.001099 89.399765 L 666.201845 82.599255 L 657.700234 80.800837 L 647.501415 81.999782 L 643.001479 85.900246 L 634.398658 90.298973 Z M 628.800986 88.09961 " stroke="#000000" stroke-width="1" stroke-opacity="1" stroke-miterlimit="4"/><path stroke-linecap="butt" transform="matrix(1.003486, 0, 0, 1.003486, 12.752902, 98.753402)" fill-opacity="1" fill="#ffffff" fill-rule="evenodd" stroke-linejoin="round" d="M 777.598635 303.800731 L 770.599599 297.000221 L 766.601818 284.298409 L 758.800889 268.299499 L 753.098115 276.201637 L 744.30066 278.498318 L 740.699932 282.698518 L 739.99925 291.900811 L 735.701733 312.201131 L 737.200414 317.798804 L 751.498224 320.698849 L 754.799215 310.301504 L 762.401617 316.599859 L 769.400654 313.400077 L 772.401909 316.300122 L 780.7011 316.401332 L 791.499391 321.999004 L 794.901593 326.798677 L 800.401948 331.201297 L 805.801094 339.298069 L 810.098611 343.801898 L 815.29923 345.000843 L 818.899958 341.598642 L 812.69892 337.398442 L 808.701139 332.699978 L 801.79942 324.700523 L 794.699173 316.798385 Z M 777.598635 303.800731 " stroke="#000000" stroke-width="1" stroke-opacity="1" stroke-miterlimit="4"/><path stroke-linecap="butt" transform="matrix(1.003486, 0, 0, 1.003486, 12.752902, 98.753402)" fill-opacity="1" fill="#ffffff" fill-rule="evenodd" stroke-linejoin="round" d="M 754.799215 310.301504 L 751.498224 320.698849 L 737.200414 317.798804 L 735.79905 329.698723 L 731.299113 343.299743 L 724.198867 350.100253 L 719.399194 360.700017 L 718.301458 366.398899 L 712.699893 370.198154 L 709.398902 384.698382 L 709.500111 386.399483 L 709.901057 397.201667 L 708.098747 401.401867 L 701.699183 401.701604 L 697.701402 409.599849 L 705.198701 410.600268 L 711.500948 417.299568 L 713.700312 422.901133 L 719.399194 426.100915 L 726.799176 441.099406 L 733.19874 443.501189 L 733.29995 451.200908 L 737.50015 455.798162 L 746.001761 455.798162 L 761.700935 467.499554 L 765.500189 467.698081 L 768.400235 467.301028 L 771.101754 468.900919 L 779.299736 469.998654 L 782.799254 464.198563 L 793.901174 458.398471 L 798.798164 463.100827 L 807.198565 463.100827 L 810.499557 458.698207 L 818.300485 458.499681 L 829.00146 448.701808 L 844.89916 448.098443 L 878.399554 406.598594 L 868.099526 406.699803 L 827.798622 390.299947 L 822.998949 385.301748 L 818.401695 378.699764 L 813.598129 371.000046 L 816.101122 366.099163 L 813.298393 363.701273 L 810.398347 364.600482 L 803.60173 364.398062 L 803.298101 360.201754 L 802.200366 356.398607 L 806.10083 349.901726 L 810.098611 343.801898 L 805.801094 339.298069 L 800.401948 331.201297 L 794.901593 326.798677 L 791.499391 321.999004 L 780.7011 316.401332 L 772.401909 316.300122 L 769.400654 313.400077 L 762.401617 316.599859 Z M 754.799215 310.301504 " stroke="#000000" stroke-width="1" stroke-opacity="1" stroke-miterlimit="4"/><path stroke-linecap="butt" transform="matrix(1.003486, 0, 0, 1.003486, 12.752902, 98.753402)" fill-opacity="1" fill="#ffffff" fill-rule="evenodd" stroke-linejoin="round" d="M 455.89987 485.900247 L 454.401188 485.199565 L 447.098523 487.001875 L 439.69854 485.098355 L 433.898449 486.001457 L 433.999658 502.701049 L 416.299648 502.49863 L 412.099447 503.300522 L 409.701557 513.60055 L 406.700302 523.698159 L 403.998782 528.100779 L 403.699046 532.701925 L 411.001712 546.999734 L 419.098484 558.401391 L 431.601768 572.399464 L 440.901378 564.699745 L 436.300232 555.598662 L 440.500432 552.099144 L 448.799623 550.401936 L 449.800042 544.298215 L 456.300815 550.900199 L 467.099107 551.499671 L 470.801044 544.998898 L 472.400935 535.800497 L 471.10078 524.998314 L 465.300689 516.800332 L 470.598625 500.700212 L 467.500053 497.998693 L 458.398969 499.100321 L 455.000661 492.000075 Z M 455.89987 485.900247 " stroke="#000000" stroke-width="1" stroke-opacity="1" stroke-miterlimit="4"/><path stroke-linecap="butt" transform="matrix(1.003486, 0, 0, 1.003486, 12.752902, 98.753402)" fill-opacity="1" fill="#ffffff" fill-rule="evenodd" stroke-linejoin="round" d="M 296.401246 364.900218 L 290.799681 363.79859 L 286.899217 366.001846 L 281.500072 365.001427 L 260.401752 365.6009 L 260.098123 373.499145 L 261.701907 383.900383 L 264.901689 403.601231 L 259.798387 415.201414 L 256.598605 430.799378 L 261.799224 442.699297 L 261.300961 448.199653 L 272.200462 452.100117 L 283.201172 448.098443 L 289.900473 443.39998 L 309.099165 435.299315 L 306.300329 430.398432 L 303.100547 421.600978 L 302.100128 414.800468 L 304.801647 402.301076 L 301.800392 397.298984 L 300.601447 386.399483 L 300.601447 376.301874 L 295.498145 369.201628 Z M 296.401246 364.900218 " stroke="#000000" stroke-width="1" stroke-opacity="1" stroke-miterlimit="4"/><path stroke-linecap="butt" transform="matrix(1.003486, 0, 0, 1.003486, 12.752902, 98.753402)" fill-opacity="1" fill="#ffffff" fill-rule="evenodd" stroke-linejoin="round" d="M 156.401051 345.19937 L 154.598741 345.900052 L 148.00065 344.798424 L 147.101442 346.398315 L 144.399922 346.701944 L 135.699785 343.299743 L 129.899694 343.198533 L 129.599957 347.900889 L 128.299803 349.298361 L 129.199011 353.899507 L 127.299384 355.701818 L 124.601758 355.799135 L 121.398083 358.099708 L 117.700038 357.799972 L 112.199683 364.600482 L 115.800411 366.799845 L 117.501512 369.898417 L 118.801666 375.998245 L 121.799029 378.699764 L 124.901494 380.498182 L 129.599957 385.90122 L 134.901786 394.099202 L 141.398667 387.999374 L 142.901241 384.20012 L 144.999395 381.198864 L 148.300387 380.899128 L 151.200432 378.298818 L 160.900988 378.298818 L 164.198087 383.300911 L 166.798397 389.101002 L 166.401343 393.098783 L 168.300971 396.699511 L 168.199761 401.798921 L 171.500753 401.000921 L 174.101062 400.701185 L 177.300844 399.101294 L 182.400253 407.599012 L 181.501045 413.200577 L 183.898935 416.100623 L 187.301136 416.201832 L 189.901446 410.600268 L 193.299754 411.001213 L 195.199381 411.001213 L 196.001273 404.901386 L 195.098172 402.199867 L 196.1998 400.300239 L 200.800946 398.700348 L 197.799691 387.598428 L 195.000855 381.899546 L 196.001273 377.201083 L 198.500373 376.099455 L 194.798436 372.101674 L 195.499118 367.99879 L 193.899227 366.398899 L 191.298917 367.699054 L 191.89839 363.199117 L 194.401382 359.699599 L 189.39929 353.899507 L 188.001818 350.100253 L 185.300299 347.00168 L 182.898516 346.701944 L 179.998471 348.601571 L 176.000689 350.399989 L 172.699698 353.401244 L 167.499079 352.299616 L 164.198087 348.800098 L 162.201143 348.399152 L 159.001361 350.201462 L 157.000524 350.201462 Z M 156.401051 345.19937 " stroke="#000000" stroke-width="1" stroke-opacity="1" stroke-miterlimit="4"/><path stroke-linecap="butt" transform="matrix(1.003486, 0, 0, 1.003486, 12.752902, 98.753402)" fill-opacity="1" fill="#ffffff" fill-rule="evenodd" stroke-linejoin="round" d="M 91.899363 335.401497 L 102.900073 335.600024 L 105.901329 333.700397 L 108.100692 333.599187 L 112.600629 330.399405 L 117.801248 333.299451 L 123.001867 333.599187 L 128.299803 330.500615 L 125.901913 326.498941 L 121.900239 328.799514 L 118.100984 328.698304 L 113.398628 325.299996 L 109.599373 325.498522 L 106.800537 328.799514 L 93.600463 329.20046 Z M 91.899363 335.401497 " stroke="#000000" stroke-width="1" stroke-opacity="1" stroke-miterlimit="4"/><path stroke-linecap="butt" transform="matrix(1.003486, 0, 0, 1.003486, 12.752902, 98.753402)" fill-opacity="1" fill="#ffffff" fill-rule="evenodd" stroke-linejoin="round" d="M 129.899694 343.198533 L 107.50122 342.599061 L 104.200228 344.198952 L 100.198554 343.700689 L 93.701673 346.001262 L 94.398463 348.901308 L 98.1004 351.89867 L 97.99919 354.000717 L 100.70071 357.901181 L 105.800119 358.80039 L 112.199683 364.600482 L 117.700038 357.799972 L 121.398083 358.099708 L 124.601758 355.799135 L 127.299384 355.701818 L 129.199011 353.899507 L 128.299803 349.298361 L 129.599957 347.900889 Z M 129.899694 343.198533 " stroke="#000000" stroke-width="1" stroke-opacity="1" stroke-miterlimit="4"/><path stroke-linecap="butt" transform="matrix(1.003486, 0, 0, 1.003486, 12.752902, 98.753402)" fill-opacity="1" fill="#ffffff" fill-rule="evenodd" stroke-linejoin="round" d="M 433.898449 486.001457 L 413.999074 485.701721 L 409.900084 501.198475 L 412.099447 503.300522 L 416.299648 502.49863 L 433.999658 502.701049 Z M 433.898449 486.001457 " stroke="#000000" stroke-width="1" stroke-opacity="1" stroke-miterlimit="4"/><path stroke-linecap="butt" transform="matrix(1.003486, 0, 0, 1.003486, 12.752902, 98.753402)" fill-opacity="1" fill="#ffffff" fill-rule="evenodd" stroke-linejoin="round" d="M 807.198565 463.100827 L 798.798164 463.100827 L 793.901174 458.398471 L 782.799254 464.198563 L 779.299736 469.998654 L 771.101754 468.900919 L 768.400235 467.301028 L 765.500189 467.698081 L 761.700935 467.499554 L 746.001761 455.798162 L 737.50015 455.798162 L 733.29995 451.200908 L 733.19874 443.501189 L 726.799176 441.099406 L 718.698512 450.200489 L 711.298529 458.499681 L 717.19983 468.099027 L 718.698512 475.101956 L 724.198867 490.898447 L 719.80014 500.999948 L 713.898839 510.198349 L 710.39932 515.799913 L 710.39932 516.500596 L 713.299366 521.701215 L 712.501367 532.001243 L 756.601526 560.199808 L 757.298315 568.199264 L 774.601273 581.99881 L 779.599472 577.401556 L 782.098572 568.199264 L 786.100246 562.698908 L 787.999873 552.901036 L 792.60102 551.900617 L 795.699592 546.100526 L 804.29852 540.60017 L 797.100956 529.198514 L 796.70001 478.800001 Z M 807.198565 463.100827 " stroke="#000000" stroke-width="1" stroke-opacity="1" stroke-miterlimit="4"/><path stroke-linecap="butt" transform="matrix(1.003486, 0, 0, 1.003486, 12.752902, 98.753402)" fill-opacity="1" fill="#ffffff" fill-rule="evenodd" stroke-linejoin="round" d="M 193.299754 411.001213 L 189.901446 410.600268 L 187.301136 416.201832 L 183.898935 416.100623 L 181.501045 413.200577 L 182.400253 407.599012 L 177.300844 399.101294 L 174.101062 400.701185 L 171.500753 401.000921 L 165.801871 407.501695 L 160.301516 414.998995 L 159.600833 419.000668 L 156.700788 423.399396 L 164.801452 432.298059 L 175.198797 439.900461 L 186.199508 450.399016 L 198.800109 457.000999 L 201.999891 456.89979 L 203.00031 445.498133 L 204.101938 443.800925 L 203.798309 438.30057 L 198.601583 432.500479 L 194.798436 431.60127 L 191.2016 427.798123 L 193.899227 421.698295 L 192.700282 414.998995 Z M 193.299754 411.001213 " stroke="#000000" stroke-width="1" stroke-opacity="1" stroke-miterlimit="4"/><path stroke-linecap="butt" transform="matrix(1.003486, 0, 0, 1.003486, 12.752902, 98.753402)" fill-opacity="1" fill="#ffffff" fill-rule="evenodd" stroke-linejoin="round" d="M 589.800237 80.598418 L 586.701664 76.098481 L 575.000272 74.49859 L 571.099808 72.1007 L 566.70108 72.1007 L 562.298461 65.899662 L 546.40076 63.100826 L 538.498622 64.899244 L 530.600377 71.400018 L 527.299385 78.099318 L 530.701586 88.699082 L 525.399758 95.00133 L 519.899403 98.598165 L 506.999065 91.700338 L 490.299473 86.001456 L 479.699708 83.299937 L 473.59988 70.999072 L 457.900706 64.899244 L 448.098941 62.598671 L 443.299268 63.801509 L 429.499722 59.001836 L 429.199985 69.6016 L 423.59842 73.599381 L 420.200112 77.998108 L 412.301866 83.299937 L 413.800548 88.998819 L 412.901339 94.79891 L 407.299774 97.998692 L 411.398765 110.198348 L 412.200657 116.601804 L 410.398346 127.898359 L 411.398765 134.200606 L 410.001293 141.799115 L 411.301448 150.499252 L 406.700302 156.299343 L 413.901757 166.400845 L 414.50123 172.298254 L 418.798747 180.001865 L 424.299103 177.498872 L 433.898449 183.898437 L 439.301487 192.598574 L 458.301652 198.601085 L 465.199479 206.098384 L 473.498671 200.998975 L 485.39859 193.400466 L 533.800159 219.901823 L 582.501464 246.399288 L 582.400254 240.599197 L 596.199801 240.599197 L 595.199382 212.898894 L 593.000019 161.998225 L 590.099973 112.798657 L 585.899773 101.59942 L 588.301555 93.101702 L 586.098299 87.200401 Z M 589.800237 80.598418 " stroke="#000000" stroke-width="1" stroke-opacity="1" stroke-miterlimit="4"/><path stroke-linecap="butt" transform="matrix(1.003486, 0, 0, 1.003486, 12.752902, 98.753402)" fill-opacity="1" fill="#ffffff" fill-rule="evenodd" stroke-linejoin="round" d="M 625.301468 939.899489 L 627.800568 935.500762 L 634.499868 933.301398 L 636.901651 928.801462 L 641.000642 922.098269 L 637.201387 917.901961 L 632.401714 913.70176 L 626.69894 916.500597 L 619.89843 921.899742 L 613.000603 930.599879 L 621.000058 941.199644 Z M 625.301468 939.899489 " stroke="#000000" stroke-width="1" stroke-opacity="1" stroke-miterlimit="4"/><path stroke-linecap="butt" transform="matrix(1.003486, 0, 0, 1.003486, 12.752902, 98.753402)" fill-opacity="1" fill="#ffffff" fill-rule="evenodd" stroke-linejoin="round" d="M 271.200043 30.698168 L 266.201844 30.600851 L 254.301924 27.498386 L 243.301214 28.401487 L 236.500704 22.500186 L 227.999093 22.398976 L 224.199839 31.001797 L 216.200384 45.498133 L 207.500247 51.200907 L 195.701537 57.600471 L 188.001818 66.900081 L 186.199508 74.198854 L 181.399835 86.001456 L 183.898935 103.199311 L 173.801326 114.698285 L 167.798815 118.400222 L 158.199469 127.801042 L 147.198759 129.400933 L 141.098931 134.698868 L 140.900404 134.901288 L 132.998266 149.000571 L 124.901494 154.09998 L 120.401557 162.60159 L 119.899402 170.001573 L 116.501093 178.098345 L 112.499419 180.301601 L 105.601592 189.099055 L 101.198973 198.900821 L 101.899655 203.498075 L 97.800664 210.80074 L 93.098308 214.498785 L 92.300309 220.898349 L 92.498835 220.999559 L 119.498456 219.901823 L 121.098347 214.899731 L 126.100439 208.698693 L 130.499166 189.601211 L 147.401178 174.598827 L 153.399796 157.198552 L 157.101734 156.100817 L 161.301934 145.298633 L 171.298333 143.901161 L 175.498534 145.699579 L 180.901572 145.699579 L 184.798144 142.499797 L 192.100809 142.098851 L 191.999599 134.601552 L 193.80191 134.601552 L 194.000436 118.299012 L 213.199128 108.100194 L 225.001731 105.998147 L 234.601077 102.300102 L 239.198331 95.301066 L 253.00177 89.90192 L 253.601242 79.699209 L 260.300543 78.500264 L 265.699688 73.400855 L 280.900599 71.100281 L 283.099963 65.701136 L 280.00139 62.80109 L 276.100926 48.098442 L 275.400244 39.701934 Z M 271.200043 30.698168 " stroke="#000000" stroke-width="1" stroke-opacity="1" stroke-miterlimit="4"/><path stroke-linecap="butt" transform="matrix(1.003486, 0, 0, 1.003486, 12.752902, 98.753402)" fill-opacity="1" fill="#ffffff" fill-rule="evenodd" stroke-linejoin="round" d="M 902.900075 704.80115 L 900.400975 695.700067 L 897.39972 689.798766 L 893.499255 683.901357 L 889.201738 690.098502 L 888.501056 698.401586 L 881.40081 708.000932 L 876.3014 706.299831 L 877.601555 712.298449 L 873.599881 719.200169 L 863.198643 727.70178 L 855.89987 735.600025 L 850.500725 735.798552 L 845.899578 738.301544 L 839.001751 741.10038 L 832.999241 741.699853 L 830.799877 750.39999 L 826.101414 758.200918 L 826.29994 770.898837 L 828.001041 779.598974 L 830.398931 786.200957 L 828.701723 794.998412 L 822.298267 805.500859 L 821.99853 810.098113 L 816.299648 812.499896 L 813.500812 822.500188 L 813.901758 832.39927 L 817.300067 843.39998 L 817.198857 855.700846 L 819.799167 862.999618 L 828.90025 868.001711 L 835.401024 871.501229 L 846.300524 865.701138 L 856.199607 862.400146 L 863.000117 846.300026 L 869.099944 827.101334 L 878.399554 800.899713 L 885.698327 781.798338 L 891.599628 765.698218 L 893.199519 754.000718 L 896.699037 750.800936 L 898.201611 744.899635 L 896.500511 734.700816 L 899.10082 730.601825 L 902.600339 738.698597 L 904.998229 734.599606 L 906.699329 728.001516 L 903.900493 721.500742 Z M 902.900075 704.80115 " stroke="#000000" stroke-width="1" stroke-opacity="1" stroke-miterlimit="4"/><path stroke-linecap="butt" transform="matrix(1.003486, 0, 0, 1.003486, 12.752902, 98.753402)" fill-opacity="1" fill="#ffffff" fill-rule="evenodd" stroke-linejoin="round" d="M 347.399232 252.300589 L 334.101841 253.600744 L 333.899422 244.799397 L 328.399066 242.600034 L 320.901767 238.59836 L 318.001721 232.198796 L 277.599607 201.999393 L 237.59844 171.799991 L 219.400166 171.998517 L 224.499575 231.700533 L 229.898721 291.398656 L 231.899558 293.200966 L 229.201931 302.800312 L 180.699153 302.998839 L 178.799525 306.101304 L 174.198379 305.198202 L 167.300552 307.899721 L 158.900151 304.100467 L 155.100897 304.400203 L 152.901533 312.598185 L 148.79865 315.101177 L 149.199595 323.700105 L 151.500169 331.59835 L 156.000105 335.498814 L 157.000524 340.800643 L 156.401051 345.19937 L 157.000524 350.201462 L 159.001361 350.201462 L 162.201143 348.399152 L 164.198087 348.800098 L 167.499079 352.299616 L 172.699698 353.401244 L 176.000689 350.399989 L 179.998471 348.601571 L 182.898516 346.701944 L 185.300299 347.00168 L 188.001818 350.100253 L 189.39929 353.899507 L 194.401382 359.699599 L 191.89839 363.199117 L 191.298917 367.699054 L 193.899227 366.398899 L 195.499118 367.99879 L 194.798436 372.101674 L 198.500373 376.099455 L 200.100264 374.7993 L 203.401256 376.901347 L 212.798183 376.998664 L 215.098756 373.000882 L 217.200802 373.300619 L 220.700321 371.700728 L 222.498738 377.598136 L 225.398784 375.900928 L 230.400876 373.798882 L 229.598984 365.799427 L 233.001186 359.898125 L 232.70145 355.199662 L 242.398113 343.801898 L 244.200423 334.299869 L 247.598731 330.901561 L 253.398823 332.801188 L 258.498232 329.998459 L 260.199333 326.401624 L 269.600152 320.200587 L 271.900726 315.899176 L 283.201172 310.099085 L 289.900473 308.199458 L 292.901728 310.799767 L 300.698764 310.799767 L 308.398482 310.200295 L 312.898419 305.299412 L 329.399485 304.100467 L 340.100459 301.901103 L 341.100878 293.399493 L 347.698968 284.201092 Z M 347.399232 252.300589 " stroke="#000000" stroke-width="1" stroke-opacity="1" stroke-miterlimit="4"/><path stroke-linecap="butt" transform="matrix(1.003486, 0, 0, 1.003486, 12.752902, 98.753402)" fill-opacity="1" fill="#ffffff" fill-rule="evenodd" stroke-linejoin="round" d="M 788.1984 666.201346 L 786.501192 660.000309 L 776.5009 668.100974 L 763.098407 673.39891 L 755.799634 673.200383 L 751.299697 677.400583 L 742.899296 677.70032 L 739.598304 679.498737 L 725.199285 675.598273 L 720.500822 676.100429 L 717.19983 689.199293 L 718.601195 704.999676 L 719.301877 704.999676 L 723.498185 709.398404 L 728.099331 719.398696 L 728.399067 737.199916 L 722.999922 740.201171 L 718.900931 749.800517 L 711.399739 741.20159 L 710.901476 731.501034 L 713.801522 725.00026 L 713.299366 719.499905 L 708.600903 716.000387 L 705.299911 717.199332 L 698.499401 710.601241 L 661.398279 721.999005 L 662.200171 731.898087 L 662.799643 737.001389 L 672.799935 736.701653 L 678.30029 739.699016 L 680.79939 743.101217 L 686.498272 744.101636 L 692.5981 748.500363 L 691.800101 766.001847 L 689.001265 775.601193 L 688.000846 785.998538 L 689.701947 790.101422 L 688.000846 798.198194 L 686.101219 799.498348 L 682.500491 809.401323 L 669.10189 825.100497 L 673.800354 844.598925 L 676.299453 854.5019 L 673.298198 869.901338 L 673.99888 874.899538 L 675.299035 881.100575 L 675.898508 887.200403 L 684.898381 887.301612 L 686.400955 879.998947 L 683.500909 879.099738 L 682.901437 873.299647 L 688.401792 868.099028 L 703.201757 860.601728 L 713.299366 856.000582 L 718.601195 850.998489 L 720.699348 845.299608 L 718.001722 842.901717 L 720.399612 836.498261 L 721.50124 822.901134 L 719.301877 823.601816 L 719.399194 819.498932 L 717.499566 811.398268 L 712.298948 800.899713 L 713.898839 791.00063 L 718.998248 787.800848 L 727.900804 777.999083 L 732.599268 775.499983 L 746.998287 760.598808 L 761.000253 753.899508 L 772.300699 748.601572 L 780.401364 740.099962 L 785.59809 730.500616 L 789.700974 720.601533 L 787.898664 713.801023 L 788.299609 692.200548 L 787.299191 680.000893 Z M 788.1984 666.201346 " stroke="#000000" stroke-width="1" stroke-opacity="1" stroke-miterlimit="4"/><path stroke-linecap="butt" transform="matrix(1.003486, 0, 0, 1.003486, 12.752902, 98.753402)" fill-opacity="1" fill="#ffffff" fill-rule="evenodd" stroke-linejoin="round" d="M 237.59844 171.799991 L 193.498281 138.299596 L 193.000018 159.199389 L 154.100478 158.498707 L 153.699532 193.898728 L 142.500295 195.198883 L 139.401723 202.299129 L 141.30135 222.299713 L 94.398463 222.198504 L 91.700836 226.79965 L 97.800664 232.798268 L 100.801919 239.299042 L 99.400555 246.200762 L 100.70071 253.098588 L 101.701128 266.800818 L 99.898818 279.798473 L 96.399299 286.598983 L 97.298508 294.100175 L 101.498709 289.600238 L 107.50122 290.799183 L 113.398628 287.80182 L 120.199138 287.700611 L 125.901913 291.698392 L 133.800158 295.40033 L 141.001614 305.599148 L 148.79865 315.101177 L 152.901533 312.598185 L 155.100897 304.400203 L 158.900151 304.100467 L 167.300552 307.899721 L 174.198379 305.198202 L 178.799525 306.101304 L 180.699153 302.998839 L 229.201931 302.800312 L 231.899558 293.200966 L 229.898721 291.398656 L 224.499575 231.700533 L 219.400166 171.998517 Z M 237.59844 171.799991 " stroke="#000000" stroke-width="1" stroke-opacity="1" stroke-miterlimit="4"/><path stroke-linecap="butt" transform="matrix(1.003486, 0, 0, 1.003486, 12.752902, 98.753402)" fill-opacity="1" fill="#ffffff" fill-rule="evenodd" stroke-linejoin="round" d="M 714.599521 711.698977 L 714.899257 706.498358 L 712.201631 702.399367 L 712.598684 696.400749 L 709.301585 686.20193 L 712.99963 678.498319 L 712.801103 661.798727 L 708.69822 652.900063 L 709.099166 651.401381 L 706.798592 647.598234 L 694.898673 645.001817 L 700.500238 651.198962 L 703.299074 662.900355 L 701.09971 666.699609 L 698.398191 677.898846 L 700.399028 689.401712 L 696.401247 694.201385 L 692.298364 707.000513 L 698.499401 710.601241 L 705.299911 717.199332 L 708.600903 716.000387 L 713.299366 719.499905 L 713.801522 725.00026 L 710.901476 731.501034 L 711.399739 741.20159 L 718.900931 749.800517 L 722.999922 740.201171 L 728.399067 737.199916 L 728.099331 719.398696 L 723.498185 709.398404 L 719.301877 704.999676 L 718.601195 704.999676 L 718.698512 706.899304 L 720.999085 707.401459 L 723.198448 714.801442 L 722.801395 716.49865 L 718.698512 711.200714 L 716.499148 714.599022 Z M 714.599521 711.698977 " stroke="#000000" stroke-width="1" stroke-opacity="1" stroke-miterlimit="4"/><path stroke-linecap="butt" transform="matrix(1.003486, 0, 0, 1.003486, 12.752902, 98.753402)" fill-opacity="1" fill="#ffffff" fill-rule="evenodd" stroke-linejoin="round" d="M 576.00069 759.6996 L 553.598323 765.398482 L 524.500549 763.401537 L 516.298675 756.799554 L 467.500053 757.399026 L 465.600425 758.399445 L 458.500179 752.101091 L 450.699251 751.700145 L 443.501687 754.000718 L 437.600386 756.698344 L 438.199859 767.298109 L 447.701888 780.801812 L 450.200988 789.498056 L 456.199606 806.100332 L 462.100907 817.498095 L 466.698161 823.20087 L 467.998315 830.799379 L 467.900998 847.300445 L 471.299307 868.601183 L 473.899617 878.698792 L 476.09898 892.101285 L 480.40039 902.198894 L 488.699582 912.701342 L 494.6982 905.900832 L 499.198136 909.598877 L 500.899237 915.601388 L 506.099856 916.601806 L 513.398629 919.198223 L 519.798193 918.201697 L 530.600377 911.101451 L 532.79974 859.998363 L 534.201105 819.600142 L 545.999814 819.101879 L 547.899442 769.801101 L 556.899315 769.400155 L 575.599744 764.499273 L 579.998471 770.198155 L 587.900609 764.799009 L 591.501337 764.799009 L 598.399164 761.700437 L 598.399164 760.501492 L 593.700701 757.399026 L 585.899773 756.601027 Z M 576.00069 759.6996 " stroke="#000000" stroke-width="1" stroke-opacity="1" stroke-miterlimit="4"/><path stroke-linecap="butt" transform="matrix(1.003486, 0, 0, 1.003486, 12.752902, 98.753402)" fill-opacity="1" fill="#ffffff" fill-rule="evenodd" stroke-linejoin="round" d="M 458.301652 198.601085 L 439.301487 192.598574 L 398.798163 218.998722 L 364.301243 246.099552 L 347.399232 252.300589 L 347.698968 284.201092 L 341.100878 293.399493 L 340.100459 301.901103 L 329.399485 304.100467 L 312.898419 305.299412 L 308.398482 310.200295 L 300.698764 310.799767 L 299.698345 317.499067 L 301.298236 323.801314 L 308.199956 332.801188 L 308.600902 339.500488 L 322.598975 342.599061 L 322.299239 352.10109 L 326.398229 348.099416 L 330.69964 347.998206 L 339.999249 356.001554 L 340.801141 343.599479 L 344.30066 338.099124 L 345.900551 330.099669 L 349.100333 327.098413 L 362.10188 325.498522 L 374.301535 330.601824 L 378.898789 335.89976 L 384.998617 336.098287 L 390.798708 332.699978 L 405.501356 339.800225 L 411.698501 339.500488 L 418.798747 333.599187 L 425.898994 334.000133 L 429.398512 332.100506 L 435.899286 332.898505 L 445.300105 336.900179 L 454.700924 329.20046 L 457.60097 329.799933 L 466.001371 344.899634 L 468.200735 344.599898 L 468.601681 340.20117 L 471.999989 339.399279 L 473.101617 332.898505 L 465.300689 332.598769 L 465.199479 323.700105 L 460.10007 318.499486 L 465.000953 300.301212 L 480.201864 287.299665 L 480.40039 269.299918 L 484.398171 241.198669 L 486.901164 235.200051 L 481.801755 230.501588 L 481.498126 226.098968 L 476.900872 222.49824 L 473.498671 200.998975 L 465.199479 206.098384 Z M 458.301652 198.601085 " stroke="#000000" stroke-width="1" stroke-opacity="1" stroke-miterlimit="4"/><path stroke-linecap="butt" transform="matrix(1.003486, 0, 0, 1.003486, 12.752902, 98.753402)" fill-opacity="1" fill="#ffffff" fill-rule="evenodd" stroke-linejoin="round" d="M 468.200735 344.599898 L 466.001371 344.899634 L 457.60097 329.799933 L 454.700924 329.20046 L 445.300105 336.900179 L 435.899286 332.898505 L 429.398512 332.100506 L 425.898994 334.000133 L 418.798747 333.599187 L 411.698501 339.500488 L 405.501356 339.800225 L 390.798708 332.699978 L 384.998617 336.098287 L 378.898789 335.89976 L 374.301535 330.601824 L 362.10188 325.498522 L 349.100333 327.098413 L 345.900551 330.099669 L 344.30066 338.099124 L 340.801141 343.599479 L 339.999249 356.001554 L 339.500987 360.598808 L 342.299823 368.800682 L 339.901932 374.398354 L 341.198194 378.100292 L 335.300786 386.601902 L 331.598848 390.89942 L 329.298275 399.599557 L 329.601904 408.400904 L 328.998539 430.698168 L 339.699513 430.698168 L 348.901806 430.600851 L 357.500734 439.701935 L 361.599724 449.698334 L 368.100498 458.301154 L 377.898371 458.60089 L 382.600727 455.498425 L 387.201873 456.300317 L 399.899792 451.298225 L 402.998364 441.500352 L 408.701138 428.101752 L 412.301866 428.000542 L 419.49943 419.899877 L 424.100576 419.701351 L 430.998403 425.400233 L 439.301487 420.701769 L 440.399222 414.998995 L 443.100741 409.401322 L 445.000369 402.398393 L 451.399933 396.699511 L 453.801716 386.998956 L 456.398132 383.900383 L 458.001916 376.698927 L 461.100488 367.901473 L 471.299307 357.200499 L 471.801463 352.599353 L 473.101617 350.100253 Z M 468.200735 344.599898 " stroke="#000000" stroke-width="1" stroke-opacity="1" stroke-miterlimit="4"/><path stroke-linecap="butt" transform="matrix(1.003486, 0, 0, 1.003486, 12.752902, 98.753402)" fill-opacity="1" fill="#ffffff" fill-rule="evenodd" stroke-linejoin="round" d="M 667.899053 533.001661 L 660.49907 537.299179 L 657.599024 535.901707 L 654.099506 539.700962 L 653.601243 548.000153 L 651.900142 549.000571 L 650.701197 556.599081 L 658.10118 557.700709 L 661.900434 549.798571 L 668.401208 550.701672 L 671.900726 548.899362 L 672.698726 540.798697 Z M 667.899053 533.001661 " stroke="#000000" stroke-width="1" stroke-opacity="1" stroke-miterlimit="4"/><path stroke-linecap="butt" transform="matrix(1.003486, 0, 0, 1.003486, 12.752902, 98.753402)" fill-opacity="1" fill="#ffffff" fill-rule="evenodd" stroke-linejoin="round" d="M 193.80191 134.601552 L 191.999599 134.601552 L 192.100809 142.098851 L 184.798144 142.499797 L 180.901572 145.699579 L 175.498534 145.699579 L 171.298333 143.901161 L 161.301934 145.298633 L 157.101734 156.100817 L 153.399796 157.198552 L 147.401178 174.598827 L 130.499166 189.601211 L 126.100439 208.698693 L 121.098347 214.899731 L 119.498456 219.901823 L 92.498835 220.999559 L 92.300309 220.898349 L 91.700836 226.79965 L 94.398463 222.198504 L 141.30135 222.299713 L 139.401723 202.299129 L 142.500295 195.198883 L 153.699532 193.898728 L 154.100478 158.498707 L 193.000018 159.199389 L 193.498281 138.299596 L 193.80191 135.598077 Z M 193.80191 134.601552 " stroke="#000000" stroke-width="1" stroke-opacity="1" stroke-miterlimit="4"/><path stroke-linecap="butt" transform="matrix(1.003486, 0, 0, 1.003486, 12.752902, 98.753402)" fill-opacity="1" fill="#ffffff" fill-rule="evenodd" stroke-linejoin="round" d="M 739.99925 291.900811 L 740.699932 282.698518 L 744.30066 278.498318 L 753.098115 276.201637 L 758.800889 268.299499 L 751.899169 263.20009 L 747.099496 259.801781 L 741.801561 243.300716 L 739.298568 228.999014 L 741.801561 226.499914 L 737.099204 212.898894 L 595.199382 212.898894 L 596.199801 240.599197 L 582.400254 240.599197 L 582.501464 246.399288 L 584.899354 301.301631 L 574.400799 300.398529 L 569.20018 310.60124 L 566.198925 319.098958 L 568.799234 322.29874 L 564.99998 326.600151 L 566.498661 332.299032 L 563.501298 338.099124 L 562.298461 343.101216 L 566.599871 342.299324 L 569.20018 347.69847 L 569.499916 355.701818 L 574.101063 359.800808 L 573.999853 363.199117 L 575.498535 369.100418 L 582.69999 377.699346 L 582.8012 383.398228 L 580.901573 389.101002 L 581.800782 393.39852 L 586.000982 397.400194 L 587.001401 398.100876 L 590.800655 396.500985 L 594.899646 393.900675 L 597.799692 381.59981 L 600.999474 375.200246 L 609.800821 373.300619 L 611.898975 377.099873 L 618.399748 385.099328 L 621.70074 386.298273 L 626.099467 384.001593 L 634.799604 384.398646 L 636.601915 387.298692 L 648.70036 387.298692 L 649.000097 384.398646 L 655.298451 381.798337 L 656.400079 377.800555 L 661.001226 374.90051 L 671.398571 383.001174 L 677.599608 381.59981 L 683.3997 371.599518 L 689.900473 364.001009 L 688.600319 355.701818 L 685.599063 351.700144 L 692.901729 350.898252 L 693.598518 347.900889 L 699.301293 348.800098 L 698.098455 358.998917 L 699.799556 368.999209 L 706.300329 374.499564 L 707.799011 379.20192 L 707.799011 386.099747 L 709.500111 386.399483 L 709.398902 384.698382 L 712.699893 370.198154 L 718.301458 366.398899 L 719.399194 360.700017 L 724.198867 350.100253 L 731.299113 343.299743 L 735.79905 329.698723 L 737.200414 317.798804 L 735.701733 312.201131 Z M 739.99925 291.900811 " stroke="#000000" stroke-width="1" stroke-opacity="1" stroke-miterlimit="4"/><path stroke-linecap="butt" transform="matrix(1.003486, 0, 0, 1.003486, 12.752902, 98.753402)" fill-opacity="1" fill="#ffffff" fill-rule="evenodd" stroke-linejoin="round" d="M 707.799011 379.20192 L 706.300329 374.499564 L 699.799556 368.999209 L 698.098455 358.998917 L 699.301293 348.800098 L 693.598518 347.900889 L 692.901729 350.898252 L 685.599063 351.700144 L 688.600319 355.701818 L 689.900473 364.001009 L 683.3997 371.599518 L 677.599608 381.59981 L 671.398571 383.001174 L 661.001226 374.90051 L 656.400079 377.800555 L 655.298451 381.798337 L 649.000097 384.398646 L 648.70036 387.298692 L 636.601915 387.298692 L 634.799604 384.398646 L 626.099467 384.001593 L 621.70074 386.298273 L 618.399748 385.099328 L 611.898975 377.099873 L 609.800821 373.300619 L 600.999474 375.200246 L 597.799692 381.59981 L 594.899646 393.900675 L 590.800655 396.500985 L 587.001401 398.100876 L 595.401802 403.500021 L 602.198419 409.000376 L 602.299629 413.500313 L 610.59882 420.701769 L 615.799439 426.700387 L 618.999221 434.999579 L 628.201514 440.499934 L 630.198458 444.898661 L 637.69965 456.300317 L 643.200005 458.001418 L 646.399787 455.700845 L 652.098669 456.600054 L 658.899179 453.700008 L 661.799225 459.601309 L 672.698726 468.799709 L 677.700818 465.000454 L 685.501746 468.099027 L 695.299619 464.801928 L 703.898547 464.899245 L 711.298529 458.499681 L 718.698512 450.200489 L 726.799176 441.099406 L 719.399194 426.100915 L 713.700312 422.901133 L 711.500948 417.299568 L 705.198701 410.600268 L 697.701402 409.599849 L 701.699183 401.701604 L 708.098747 401.401867 L 709.901057 397.201667 L 709.500111 386.399483 L 707.799011 386.099747 Z M 707.799011 379.20192 " stroke="#000000" stroke-width="1" stroke-opacity="1" stroke-miterlimit="4"/><g clip-path="url(#3984b6bc46)"><path fill="#ffffff" d="M 162.070312 414.953125 L 154.246094 405.417969 L 147.019531 395.183594 L 139.09375 391.46875 L 133.371094 387.457031 L 126.546875 387.558594 L 120.628906 390.566406 L 114.605469 389.363281 L 110.390625 393.878906 L 107.382812 401.003906 L 101.261719 410.738281 L 95.839844 413.347656 L 101.863281 418.261719 L 106.679688 429.101562 L 119.925781 428.699219 L 122.734375 425.386719 L 126.546875 425.1875 L 131.265625 428.597656 L 135.078125 428.699219 L 139.09375 426.390625 L 141.5 430.40625 L 136.183594 433.515625 L 130.964844 433.214844 L 125.746094 430.304688 L 121.230469 433.515625 L 119.023438 433.617188 L 116.011719 435.523438 L 104.972656 435.324219 L 106.78125 445.960938 L 113.300781 443.652344 L 117.316406 444.152344 L 120.628906 442.546875 L 143.105469 443.148438 L 148.925781 443.25 L 157.65625 446.664062 L 160.367188 446.359375 L 161.269531 444.753906 L 167.890625 445.859375 L 169.699219 445.15625 L 170.300781 440.742188 L 169.296875 435.421875 L 164.78125 431.507812 L 162.472656 423.582031 Z M 162.070312 414.953125 " fill-opacity="1" fill-rule="evenodd"/></g><g clip-path="url(#4354eae703)"><path stroke-linecap="butt" transform="matrix(1.003486, 0, 0, 1.003486, 12.752902, 98.753402)" fill="none" stroke-linejoin="round" d="M 148.79865 315.101177 L 141.001614 305.599148 L 133.800158 295.40033 L 125.901913 291.698392 L 120.199138 287.700611 L 113.398628 287.80182 L 107.50122 290.799183 L 101.498709 289.600238 L 97.298508 294.100175 L 94.301146 301.200421 L 88.201318 310.900977 L 82.79828 313.501286 L 88.80079 318.398276 L 93.600463 329.20046 L 106.800537 328.799514 L 109.599373 325.498522 L 113.398628 325.299996 L 118.100984 328.698304 L 121.900239 328.799514 L 125.901913 326.498941 L 128.299803 330.500615 L 123.001867 333.599187 L 117.801248 333.299451 L 112.600629 330.399405 L 108.100692 333.599187 L 105.901329 333.700397 L 102.900073 335.600024 L 91.899363 335.401497 L 93.701673 346.001262 L 100.198554 343.700689 L 104.200228 344.198952 L 107.50122 342.599061 L 129.899694 343.198533 L 135.699785 343.299743 L 144.399922 346.701944 L 147.101442 346.398315 L 148.00065 344.798424 L 154.598741 345.900052 L 156.401051 345.19937 L 157.000524 340.800643 L 156.000105 335.498814 L 151.500169 331.59835 L 149.199595 323.700105 Z M 148.79865 315.101177 " stroke="#000000" stroke-width="1" stroke-opacity="1" stroke-miterlimit="4"/></g><path stroke-linecap="butt" transform="matrix(1.003486, 0, 0, 1.003486, 12.752902, 98.753402)" fill-opacity="1" fill="#ffffff" fill-rule="evenodd" stroke-linejoin="round" d="M 171.500753 401.000921 L 168.199761 401.798921 L 168.300971 396.699511 L 166.401343 393.098783 L 166.798397 389.101002 L 164.198087 383.300911 L 160.900988 378.298818 L 151.200432 378.298818 L 148.300387 380.899128 L 144.999395 381.198864 L 142.901241 384.20012 L 141.398667 387.999374 L 134.901786 394.099202 L 136.299258 404.39923 L 138.401304 409.401322 L 144.699659 416.801305 L 153.399796 422.398977 L 156.700788 423.399396 L 159.600833 419.000668 L 160.301516 414.998995 L 165.801871 407.501695 Z M 171.500753 401.000921 " stroke="#000000" stroke-width="1" stroke-opacity="1" stroke-miterlimit="4"/><path stroke-linecap="butt" transform="matrix(1.003486, 0, 0, 1.003486, 12.752902, 98.753402)" fill-opacity="1" fill="#ffffff" fill-rule="evenodd" stroke-linejoin="round" d="M 673.99888 874.899538 L 668.198789 872.299228 L 664.699271 873.299647 L 663.301799 877.30132 L 659.701071 882.501939 L 659.498652 887.301612 L 666.100635 894.798912 L 673.099671 893.300231 L 675.898508 887.200403 L 675.299035 881.100575 Z M 673.99888 874.899538 " stroke="#000000" stroke-width="1" stroke-opacity="1" stroke-miterlimit="4"/><path stroke-linecap="butt" transform="matrix(1.003486, 0, 0, 1.003486, 12.752902, 98.753402)" fill-opacity="1" fill="#ffffff" fill-rule="evenodd" stroke-linejoin="round" d="M 582.501464 246.399288 L 533.800159 219.901823 L 485.39859 193.400466 L 473.498671 200.998975 L 476.900872 222.49824 L 481.498126 226.098968 L 481.801755 230.501588 L 486.901164 235.200051 L 484.398171 241.198669 L 480.40039 269.299918 L 480.201864 287.299665 L 465.000953 300.301212 L 460.10007 318.499486 L 465.199479 323.700105 L 465.300689 332.598769 L 473.101617 332.898505 L 471.999989 339.399279 L 476.900872 348.301835 L 477.90129 357.399026 L 477.500344 366.601318 L 484.300854 379.20192 L 477.500344 379.10071 L 474.098143 379.999919 L 468.500471 378.699764 L 466.001371 385.200538 L 473.198934 393.301203 L 478.500763 395.601776 L 480.299181 401.300658 L 484.199645 410.900004 L 482.401227 414.601941 L 492.401519 413.601523 L 494.600883 410.000795 L 496.699037 410.300531 L 499.700292 413.399104 L 514.99852 408.101168 L 520.101822 402.698129 L 526.400176 397.898456 L 525.201231 393.001466 L 528.59954 391.798629 L 540.398249 392.60052 L 551.698696 386.200956 L 560.301516 371.101255 L 566.300134 365.49969 L 573.999853 363.199117 L 574.101063 359.800808 L 569.499916 355.701818 L 569.20018 347.69847 L 566.599871 342.299324 L 562.298461 343.101216 L 563.501298 338.099124 L 566.498661 332.299032 L 564.99998 326.600151 L 568.799234 322.29874 L 566.198925 319.098958 L 569.20018 310.60124 L 574.400799 300.398529 L 584.899354 301.301631 Z M 582.501464 246.399288 " stroke="#000000" stroke-width="1" stroke-opacity="1" stroke-miterlimit="4"/><path stroke-linecap="butt" transform="matrix(1.003486, 0, 0, 1.003486, 12.752902, 98.753402)" fill-opacity="1" fill="#ffffff" fill-rule="evenodd" stroke-linejoin="round" d="M 307.098328 365.199954 L 296.401246 364.900218 L 295.498145 369.201628 L 300.601447 376.301874 L 300.601447 386.399483 L 301.800392 397.298984 L 304.801647 402.301076 L 302.100128 414.800468 L 303.100547 421.600978 L 306.300329 430.398432 L 309.099165 435.299315 L 318.90093 432.298059 L 315.899675 422.799923 L 316.40183 391.000629 L 313.898838 388.201793 L 313.501784 381.401283 L 309.200374 376.500401 L 305.498437 372.40141 Z M 307.098328 365.199954 " stroke="#000000" stroke-width="1" stroke-opacity="1" stroke-miterlimit="4"/><g clip-path="url(#cd68b13cdb)"><path fill="#ffffff" d="M 443.75 157.960938 L 439.234375 155.75 L 436.023438 149.128906 L 430.003906 148.925781 L 427.59375 141.300781 L 434.917969 134.277344 L 436.023438 122.132812 L 431.910156 118.621094 L 431.707031 112.101562 L 437.226562 105.074219 L 436.324219 102.367188 L 426.792969 107.585938 L 426.890625 100.460938 L 418.761719 98.753906 L 406.519531 104.472656 L 404.3125 111.699219 L 406.621094 125.144531 L 404.214844 136.785156 L 397.1875 144.613281 L 398.492188 155.050781 L 408.226562 163.378906 L 408.425781 166.6875 L 415.753906 172.308594 L 421.472656 197.09375 L 427.09375 193.882812 L 427.996094 188.0625 L 426.492188 182.34375 L 434.417969 177.023438 L 437.828125 172.609375 L 443.449219 168.597656 Z M 443.75 157.960938 " fill-opacity="1" fill-rule="evenodd"/></g><g clip-path="url(#bedcc646ce)"><path stroke-linecap="butt" transform="matrix(1.003486, 0, 0, 1.003486, 12.752902, 98.753402)" fill="none" stroke-linejoin="round" d="M 429.499722 59.001836 L 424.999785 56.798579 L 421.800003 50.200489 L 415.801385 49.998069 L 413.399602 42.39956 L 420.698375 35.400524 L 421.800003 23.298185 L 417.701012 19.798667 L 417.498593 13.301786 L 422.998948 6.298857 L 422.099739 3.60123 L 412.601603 8.801849 L 412.69892 1.701603 L 404.598255 0.000502154 L 392.398599 5.699384 L 390.199236 12.90084 L 392.499809 26.29944 L 390.101919 37.899623 L 383.09899 45.700552 L 384.399144 56.10179 L 394.0997 64.400981 L 394.298227 67.69808 L 401.600892 73.299645 L 407.299774 97.998692 L 412.901339 94.79891 L 413.800548 88.998819 L 412.301866 83.299937 L 420.200112 77.998108 L 423.59842 73.599381 L 429.199985 69.6016 Z M 429.499722 59.001836 " stroke="#000000" stroke-width="1" stroke-opacity="1" stroke-miterlimit="4"/></g><path stroke-linecap="butt" transform="matrix(1.003486, 0, 0, 1.003486, 12.752902, 98.753402)" fill-opacity="1" fill="#ffffff" fill-rule="evenodd" stroke-linejoin="round" d="M 672.200463 531.300561 L 667.899053 533.001661 L 672.698726 540.798697 L 671.900726 548.899362 L 668.401208 550.701672 L 669.000681 556.100818 L 671.60099 559.3006 L 671.698307 563.800536 L 668.700944 566.700582 L 663.800062 573.898145 L 659.300125 578.900238 L 658.10118 579.098764 L 657.400498 585.000065 L 659.701071 587.000902 L 659.198915 592.898311 L 661.499488 598.398666 L 658.599443 603.700495 L 668.299998 613.101314 L 669.10189 621.599032 L 674.999299 635.799524 L 675.598771 636.20047 L 680.398444 638.501044 L 688.098163 640.898934 L 694.898673 645.001817 L 706.798592 647.598234 L 709.099166 651.401381 L 709.901057 648.699862 L 716.098202 656.099845 L 716.701567 670.600073 L 720.598139 675.901902 L 720.500822 676.100429 L 725.199285 675.598273 L 739.598304 679.498737 L 742.899296 677.70032 L 751.299697 677.400583 L 755.799634 673.200383 L 763.098407 673.39891 L 776.5009 668.100974 L 786.501192 660.000309 L 782.098572 656.999054 L 777.400109 643.401926 L 773.398435 634.701789 L 774.398853 628.099806 L 773.799381 623.899605 L 777.298899 615.499204 L 776.999163 611.898476 L 769.299444 606.900277 L 768.699971 599.099348 L 774.601273 581.99881 L 757.298315 568.199264 L 756.601526 560.199808 L 712.501367 532.001243 L 706.498856 538.101071 L 702.399865 544.399425 L 707.199538 549.101781 L 700.200502 552.50009 L 698.70182 550.900199 L 691.601574 551.799408 L 686.101219 554.901873 L 682.800227 549.498834 L 685.1008 539.798279 L 685.599063 531.499087 Z M 672.200463 531.300561 " stroke="#000000" stroke-width="1" stroke-opacity="1" stroke-miterlimit="4"/><path stroke-linecap="butt" transform="matrix(1.003486, 0, 0, 1.003486, 12.752902, 98.753402)" fill-opacity="1" fill="#ffffff" fill-rule="evenodd" stroke-linejoin="round" d="M 711.298529 458.499681 L 703.898547 464.899245 L 695.299619 464.801928 L 685.501746 468.099027 L 677.700818 465.000454 L 672.698726 468.799709 L 672.099253 484.899829 L 677.000136 486.799456 L 673.099671 491.700339 L 668.401208 495.398384 L 663.800062 502.59984 L 661.199752 508.999404 L 660.60028 520.101324 L 657.700234 525.39926 L 657.599024 535.901707 L 660.49907 537.299179 L 667.899053 533.001661 L 672.200463 531.300561 L 685.599063 531.499087 L 684.898381 526.201151 L 690.601156 518.100487 L 698.300874 516.09965 L 703.501493 512.798658 L 709.799848 515.500177 L 710.39932 516.500596 L 710.39932 515.799913 L 713.898839 510.198349 L 719.80014 500.999948 L 724.198867 490.898447 L 718.698512 475.101956 L 717.19983 468.099027 Z M 711.298529 458.499681 " stroke="#000000" stroke-width="1" stroke-opacity="1" stroke-miterlimit="4"/><path stroke-linecap="butt" transform="matrix(1.003486, 0, 0, 1.003486, 12.752902, 98.753402)" fill-opacity="1" fill="#ffffff" fill-rule="evenodd" stroke-linejoin="round" d="M 522.301185 998.998139 L 527.599121 998.698403 L 535.100313 993.400467 L 545.100605 991.201104 L 557.401471 985.700748 L 562.099934 986.401431 L 569.30139 984.70033 L 581.598362 987.401849 L 587.499664 984.80154 L 594.401383 986.798484 L 596.199801 982.999229 L 602.198419 982.20123 L 614.79902 976.899402 L 624.09863 970.601047 L 633.001187 962.301856 L 647.400206 948.101363 L 654.901398 938.198388 L 658.801862 931.098142 L 664.298325 924.099106 L 666.801317 922.098269 L 675.400245 915.099232 L 678.899763 908.898195 L 681.200336 897.399221 L 684.898381 887.301612 L 675.898508 887.200403 L 673.099671 893.300231 L 666.100635 894.798912 L 659.498652 887.301612 L 659.701071 882.501939 L 663.301799 877.30132 L 664.699271 873.299647 L 668.198789 872.299228 L 673.99888 874.899538 L 673.298198 869.901338 L 676.299453 854.5019 L 673.800354 844.598925 L 669.10189 825.100497 L 662.799643 823.800342 L 658.700652 825.400233 L 653.001771 823.09966 L 648.100888 822.901134 L 630.801823 833.099952 L 619.598693 843.39998 L 615.199966 852.69959 L 611.299502 857.900209 L 604.798728 859.001837 L 602.400838 865.599928 L 600.999474 869.901338 L 593.198545 873.10112 L 583.599199 872.501647 L 578.098844 868.601183 L 573.201854 866.900083 L 567.199343 870.099865 L 563.999561 876.701848 L 558.19947 880.898156 L 551.998432 887.099193 L 543.500714 888.500558 L 541.001615 883.599675 L 542.500296 875.199274 L 535.999522 861.9992 L 532.79974 859.998363 L 530.600377 911.101451 L 519.798193 918.201697 L 513.398629 919.198223 L 506.099856 916.601806 L 500.899237 915.601388 L 499.198136 909.598877 L 494.6982 905.900832 L 488.699582 912.701342 L 496.3993 930.599879 L 496.3993 930.701089 L 501.798446 942.398589 L 508.700165 955.20161 L 508.501639 965.801374 L 504.601175 968.300474 L 507.800957 977.600084 L 507.298801 985.700748 L 508.598956 989.500003 L 509.299638 987.600376 L 513.900784 993.801413 L 517.700039 993.99994 Z M 625.301468 939.899489 L 621.000058 941.199644 L 613.000603 930.599879 L 619.89843 921.899742 L 626.69894 916.500597 L 632.401714 913.70176 L 637.201387 917.901961 L 641.000642 922.098269 L 636.901651 928.801462 L 634.499868 933.301398 L 627.800568 935.500762 Z M 625.301468 939.899489 " stroke="#000000" stroke-width="1" stroke-opacity="1" stroke-miterlimit="4"/><path stroke-linecap="butt" transform="matrix(1.003486, 0, 0, 1.003486, 12.752902, 98.753402)" fill-opacity="1" fill="#ffffff" fill-rule="evenodd" stroke-linejoin="round" d="M 671.301254 636.001944 L 667.19837 634.900316 L 667.899053 631.89906 L 665.800899 631.299588 L 649.401043 633.600161 L 646.100051 635.301262 L 642.499323 644.098716 L 645.099632 650.198544 L 642.600533 666.5984 L 640.700905 680.499156 L 643.900687 682.900939 L 652.301088 688.300084 L 655.699397 685.800984 L 656.29887 700.698266 L 646.99926 700.600949 L 642.199587 692.998548 L 637.898177 687.101139 L 628.699776 685.201512 L 626.099467 677.898846 L 618.598275 682.301466 L 608.901612 680.300629 L 605.001148 674.099592 L 597.301429 672.799437 L 591.598654 673.099173 L 590.999182 668.801656 L 586.798981 668.50192 L 588.001819 672.799437 L 586.499245 679.498737 L 588.500082 685.999511 L 586.499245 691.20013 L 587.499664 695.898593 L 562.201144 695.801276 L 560.601253 739.800225 L 568.398288 751.100672 L 576.00069 759.6996 L 585.899773 756.601027 L 593.700701 757.399026 L 598.399164 760.501492 L 598.399164 761.700437 L 600.598528 762.700855 L 614.001021 764.199536 L 617.800276 765.799427 L 621.899267 765.499691 L 628.898303 756.499818 L 639.801697 745.098161 L 644.200424 744.101636 L 645.901524 739.29807 L 652.900561 733.801607 L 662.200171 731.898087 L 661.398279 721.999005 L 698.499401 710.601241 L 692.298364 707.000513 L 696.401247 694.201385 L 700.399028 689.401712 L 698.398191 677.898846 L 701.09971 666.699609 L 703.299074 662.900355 L 700.500238 651.198962 L 694.898673 645.001817 L 688.098163 640.898934 L 680.398444 638.501044 L 675.598771 636.20047 L 674.999299 635.799524 L 675.898508 638.100098 L 673.901563 638.898097 Z M 671.301254 636.001944 " stroke="#000000" stroke-width="1" stroke-opacity="1" stroke-miterlimit="4"/><path stroke-linecap="butt" transform="matrix(1.003486, 0, 0, 1.003486, 12.752902, 98.753402)" fill-opacity="1" fill="#ffffff" fill-rule="evenodd" stroke-linejoin="round" d="M 669.10189 825.100497 L 682.500491 809.401323 L 686.101219 799.498348 L 688.000846 798.198194 L 689.701947 790.101422 L 688.000846 785.998538 L 689.001265 775.601193 L 691.800101 766.001847 L 692.5981 748.500363 L 686.498272 744.101636 L 680.79939 743.101217 L 678.30029 739.699016 L 672.799935 736.701653 L 662.799643 737.001389 L 662.200171 731.898087 L 652.900561 733.801607 L 645.901524 739.29807 L 644.200424 744.101636 L 639.801697 745.098161 L 628.898303 756.499818 L 621.899267 765.499691 L 617.800276 765.799427 L 614.001021 764.199536 L 600.598528 762.700855 L 604.798728 773.798882 L 607.099302 776.200665 L 610.59882 784.20012 L 623.600367 799.401031 L 628.699776 800.899713 L 628.50125 805.800595 L 631.599822 814.59805 L 640.798222 816.700096 L 648.100888 822.901134 L 653.001771 823.09966 L 658.700652 825.400233 L 662.799643 823.800342 Z M 669.10189 825.100497 " stroke="#000000" stroke-width="1" stroke-opacity="1" stroke-miterlimit="4"/><g clip-path="url(#d686e894aa)"><path fill="#ffffff" d="M 848.253906 472.851562 L 842.535156 467.03125 L 840.027344 461.3125 L 835.914062 458.703125 L 831.699219 466.128906 L 829.1875 471.046875 L 834.007812 478.773438 L 838.621094 485.398438 L 843.4375 490.414062 L 883.878906 506.871094 L 894.214844 506.769531 L 860.597656 548.414062 L 844.644531 549.019531 L 833.90625 558.851562 L 826.078125 559.050781 L 822.765625 563.46875 L 812.230469 579.222656 L 812.632812 629.796875 L 819.855469 641.238281 L 822.566406 637.925781 L 825.476562 630.601562 L 838.921875 613.84375 L 850.363281 603.207031 L 868.527344 589.457031 L 880.667969 578.21875 L 894.816406 559.253906 L 904.953125 543.699219 L 914.988281 523.429688 L 922.011719 505.667969 L 927.429688 490.113281 L 930.339844 475.160156 L 932.75 470.144531 L 932.347656 462.816406 L 933.152344 454.789062 L 932.648438 450.875 L 928.03125 450.976562 L 922.511719 455.695312 L 916.089844 457.097656 L 910.570312 459.207031 L 906.660156 459.40625 L 899.734375 459.90625 L 895.519531 462.515625 L 889.5 463.421875 L 878.960938 467.734375 L 865.714844 469.339844 L 854.375 472.851562 Z M 848.253906 472.851562 " fill-opacity="1" fill-rule="evenodd"/></g><g clip-path="url(#a4cf1dd6d5)"><path stroke-linecap="butt" transform="matrix(1.003486, 0, 0, 1.003486, 12.752902, 98.753402)" fill="none" stroke-linejoin="round" d="M 832.598295 372.798463 L 826.899413 366.998372 L 824.400313 361.29949 L 820.301322 358.69918 L 816.101122 366.099163 L 813.598129 371.000046 L 818.401695 378.699764 L 822.998949 385.301748 L 827.798622 390.299947 L 868.099526 406.699803 L 878.399554 406.598594 L 844.89916 448.098443 L 829.00146 448.701808 L 818.300485 458.499681 L 810.499557 458.698207 L 807.198565 463.100827 L 796.70001 478.800001 L 797.100956 529.198514 L 804.29852 540.60017 L 807.000039 537.299179 L 809.900084 530.000406 L 823.298685 513.300814 L 834.700341 502.701049 L 852.801298 488.99882 L 864.899744 477.799583 L 878.999027 458.900627 L 889.100528 443.39998 L 899.10082 423.200869 L 906.099857 405.500858 L 911.499002 390.000211 L 914.399048 375.099036 L 916.800831 370.100837 L 916.399885 362.798171 L 917.201777 354.798716 L 916.699621 350.898252 L 912.098475 350.999462 L 906.59812 355.701818 L 900.198556 357.099289 L 894.698201 359.201336 L 890.801629 359.399863 L 883.899909 359.898125 L 879.699709 362.498435 L 873.701091 363.401536 L 863.198643 367.699054 L 849.998569 369.298945 L 838.698123 372.798463 Z M 832.598295 372.798463 " stroke="#000000" stroke-width="1" stroke-opacity="1" stroke-miterlimit="4"/></g><g clip-path="url(#bcdc654e5b)"><g clip-path="url(#f4ad6f6ab3)"><g clip-path="url(#223bd162aa)"><g clip-path="url(#753c5a3af2)"><path stroke-linecap="butt" transform="matrix(0.742293, -0.107242, 0.107242, 0.742293, 933.662869, 902.461651)" fill="none" stroke-linejoin="miter" d="M 18.330532 0.000320915 C 8.205632 0.00049207 -0.00173009 8.218672 0.00285115 18.349472 C 0.00153283 28.484682 8.207914 36.700864 18.326914 36.705103 C 28.451815 36.704932 36.654022 28.486007 36.65534 18.350797 C 36.656659 8.215588 28.450278 -0.000594975 18.330532 0.000320915 Z M 18.330532 0.000320915 " stroke="#405441" stroke-width="8" stroke-opacity="1" stroke-miterlimit="4"/></g></g></g></g><g clip-path="url(#530dba9a11)"><g clip-path="url(#a08280626a)"><g clip-path="url(#07e8b01181)"><g clip-path="url(#1d6f511680)"><path stroke-linecap="butt" transform="matrix(0.742293, -0.107242, 0.107242, 0.742293, 95.34053, 420.630422)" fill="none" stroke-linejoin="miter" d="M 35.9153 -0.00197218 C 16.086079 0.00124574 0.00991756 8.229798 0.00636499 18.380471 C 0.00722251 28.537044 16.084578 36.764217 35.913055 36.766154 C 55.742276 36.762936 71.818437 28.534384 71.82199 18.38371 C 71.820388 8.232292 55.743777 -0.0000352971 35.9153 -0.00197218 Z M 35.9153 -0.00197218 " stroke="#405441" stroke-width="8" stroke-opacity="1" stroke-miterlimit="4"/></g></g></g></g><g clip-path="url(#4670cb9262)"><g clip-path="url(#421d70a7e7)"><g clip-path="url(#5f233b3a74)"><g clip-path="url(#220e52f7f7)"><path stroke-linecap="butt" transform="matrix(0.742293, -0.107242, 0.107242, 0.742293, 813.929472, 762.961376)" fill="none" stroke-linejoin="miter" d="M 18.32919 0.000498055 C 8.204289 0.000669211 0.00282668 8.214439 0.00150837 18.349649 C 0.000190059 28.484859 8.206571 36.701041 18.326316 36.700125 C 28.450472 36.705109 36.657834 28.486929 36.653998 18.350975 C 36.655316 8.215765 28.448935 -0.000417834 18.32919 0.000498055 Z M 18.32919 0.000498055 " stroke="#405441" stroke-width="8" stroke-opacity="1" stroke-miterlimit="4"/></g></g></g></g><g clip-path="url(#3369af5197)"><g clip-path="url(#153adacaf7)"><g clip-path="url(#93dfb39872)"><g clip-path="url(#e77fa45c04)"><path stroke-linecap="butt" transform="matrix(0.742293, -0.107242, 0.107242, 0.742293, 34.701178, 385.672006)" fill="none" stroke-linejoin="miter" d="M 18.326261 0.000488415 C 8.206516 0.0014043 -0.000101524 8.214429 -0.00141984 18.349639 C 0.00241667 28.485594 8.203643 36.701032 18.328543 36.700861 C 28.448288 36.699945 36.654906 28.486919 36.656224 18.35171 C 36.657543 8.2165 28.451162 0.000317259 18.326261 0.000488415 Z M 18.326261 0.000488415 " stroke="#405441" stroke-width="8" stroke-opacity="1" stroke-miterlimit="4"/></g></g></g></g><g clip-path="url(#d76c218efa)"><g clip-path="url(#1f85fc52ac)"><g clip-path="url(#04846d1a05)"><g clip-path="url(#b281463602)"><path stroke-linecap="butt" transform="matrix(0.742293, -0.107242, 0.107242, 0.742293, 379.723088, 603.931678)" fill="none" stroke-linejoin="miter" d="M 18.328632 -0.00167371 C 8.203732 -0.00150255 0.00152411 8.217422 0.000205797 18.352632 C -0.00111251 28.487842 8.205268 36.704024 18.330169 36.703853 C 28.449914 36.702937 36.657276 28.484757 36.658595 18.349547 C 36.654013 8.218748 28.447633 0.00256522 18.328632 -0.00167371 Z M 18.328632 -0.00167371 " stroke="#405441" stroke-width="8" stroke-opacity="1" stroke-miterlimit="4"/></g></g></g></g><g clip-path="url(#567b0b1dc6)"><g clip-path="url(#86211871fe)"><g clip-path="url(#07d36a26a8)"><g clip-path="url(#57a2104cea)"><path stroke-linecap="butt" transform="matrix(0.742293, -0.107242, 0.107242, 0.742293, 984.142449, 678.502887)" fill="none" stroke-linejoin="miter" d="M 18.326221 0.00203221 C 8.206475 0.0029481 -0.000142176 8.215973 -0.00146049 18.351183 C 0.00237602 28.487138 8.203602 36.702575 18.328502 36.702404 C 28.448248 36.701488 36.654865 28.488463 36.656184 18.353253 C 36.657502 8.218044 28.451121 0.00186105 18.326221 0.00203221 Z M 18.326221 0.00203221 " stroke="#405441" stroke-width="8" stroke-opacity="1" stroke-miterlimit="4"/></g></g></g></g></svg>